<svg width="81" height="18" viewBox="0 0 81 18" fill="none" xmlns="http://www.w3.org/2000/svg">
<path d="M9.62891 1.88281C8.22266 1.88281 7.01172 2.15625 5.99609 2.70312C4.98047 3.24219 4.19531 4.01562 3.64062 5.02344C3.09375 6.03125 2.82031 7.23438 2.82031 8.63281C2.82031 10.7031 3.38281 12.3477 4.50781 13.5664C5.64062 14.7773 7.32812 15.3828 9.57031 15.3828C10.3906 15.3828 11.168 15.3203 11.9023 15.1953C12.6445 15.0703 13.3711 14.9141 14.082 14.7266V16.5547C13.3945 16.7891 12.6797 16.9609 11.9375 17.0703C11.2031 17.1797 10.3086 17.2344 9.25391 17.2344C7.33203 17.2344 5.72656 16.8828 4.4375 16.1797C3.15625 15.4688 2.19141 14.4688 1.54297 13.1797C0.894531 11.8906 0.570312 10.3672 0.570312 8.60938C0.570312 6.92188 0.921875 5.43359 1.625 4.14453C2.32812 2.85547 3.35547 1.84766 4.70703 1.12109C6.05859 0.394531 7.71094 0.03125 9.66406 0.03125C10.6328 0.03125 11.5586 0.117187 12.4414 0.289062C13.332 0.453125 14.1211 0.695313 14.8086 1.01562L13.918 2.79688C13.3477 2.5625 12.7031 2.35156 11.9844 2.16406C11.2734 1.97656 10.4883 1.88281 9.62891 1.88281ZM22.3789 4.22656C23.8711 4.22656 24.9766 4.5625 25.6953 5.23438C26.4219 5.90625 26.7852 6.97656 26.7852 8.44531V17H25.2969L24.8984 15.2188H24.8047C24.2656 15.9062 23.6992 16.4141 23.1055 16.7422C22.5195 17.0703 21.7109 17.2344 20.6797 17.2344C19.5703 17.2344 18.6445 16.9336 17.9023 16.332C17.168 15.7227 16.8008 14.7812 16.8008 13.5078C16.8008 12.25 17.2812 11.2852 18.2422 10.6133C19.2031 9.94141 20.6836 9.57031 22.6836 9.5L24.7695 9.42969V8.67969C24.7695 7.63281 24.5469 6.90625 24.1016 6.5C23.6641 6.09375 23.0469 5.89062 22.25 5.89062C21.6094 5.89062 21 5.98828 20.4219 6.18359C19.8438 6.37891 19.3008 6.60156 18.793 6.85156L18.1602 5.30469C18.6992 5.00781 19.3359 4.75391 20.0703 4.54297C20.8047 4.33203 21.5742 4.22656 22.3789 4.22656ZM24.7461 10.8594L22.9531 10.9297C21.4375 10.9844 20.3867 11.2344 19.8008 11.6797C19.2227 12.1172 18.9336 12.7344 18.9336 13.5312C18.9336 14.2344 19.1406 14.75 19.5547 15.0781C19.9688 15.4062 20.5039 15.5703 21.1602 15.5703C22.1836 15.5703 23.0352 15.2773 23.7148 14.6914C24.4023 14.1055 24.7461 13.2031 24.7461 11.9844V10.8594ZM31.3789 0.265625H36.1367C38.2773 0.265625 39.8594 0.660156 40.8828 1.44922C41.9062 2.23828 42.418 3.42969 42.418 5.02344C42.418 5.91406 42.2461 6.65625 41.9023 7.25C41.5664 7.83594 41.1328 8.30859 40.6016 8.66797C40.0703 9.02734 39.5156 9.30469 38.9375 9.5L43.6719 17H41.2109L37.0039 10.0859H33.5V17H31.3789V0.265625ZM36.0078 2.09375H33.5V8.30469H36.1367C37.5586 8.30469 38.5977 8.03906 39.2539 7.50781C39.9102 6.96875 40.2383 6.17188 40.2383 5.11719C40.2383 4.02344 39.8906 3.24609 39.1953 2.78516C38.5078 2.32422 37.4453 2.09375 36.0078 2.09375ZM50.9961 4.20312C52.5898 4.20312 53.8438 4.72266 54.7578 5.76172C55.6719 6.79297 56.1289 8.16406 56.1289 9.875V11.1172H47.6211C47.6602 12.5312 48.0195 13.6133 48.6992 14.3633C49.3867 15.1055 50.3477 15.4766 51.582 15.4766C52.3711 15.4766 53.0703 15.4023 53.6797 15.2539C54.2969 15.1055 54.9297 14.8906 55.5781 14.6094V16.4141C54.9375 16.6953 54.3086 16.9023 53.6914 17.0352C53.0742 17.168 52.3398 17.2344 51.4883 17.2344C50.3086 17.2344 49.2656 16.9922 48.3594 16.5078C47.4609 16.0156 46.7578 15.293 46.25 14.3398C45.7422 13.3867 45.4883 12.2109 45.4883 10.8125C45.4883 9.4375 45.7188 8.25781 46.1797 7.27344C46.6406 6.28125 47.2852 5.52344 48.1133 5C48.9414 4.46875 49.9023 4.20312 50.9961 4.20312ZM50.9727 5.89062C50.0039 5.89062 49.2383 6.20703 48.6758 6.83984C48.1133 7.47266 47.7773 8.35156 47.668 9.47656H53.9844C53.9766 8.40625 53.7305 7.54297 53.2461 6.88672C52.7617 6.22266 52.0039 5.89062 50.9727 5.89062ZM65.7031 4.20312C67.2109 4.20312 68.3477 4.57031 69.1133 5.30469C69.8789 6.03125 70.2617 7.20312 70.2617 8.82031V17H68.2344V8.96094C68.2344 6.94531 67.293 5.9375 65.4102 5.9375C64.0117 5.9375 63.043 6.32812 62.5039 7.10938C61.9727 7.89062 61.707 9.01562 61.707 10.4844V17H59.6445V4.4375H61.3203L61.625 6.14844H61.7422C62.1562 5.49219 62.7188 5.00391 63.4297 4.68359C64.1484 4.36328 64.9062 4.20312 65.7031 4.20312ZM78.9219 15.5469C79.2422 15.5469 79.582 15.5234 79.9414 15.4766C80.3008 15.4219 80.5781 15.3594 80.7734 15.2891V16.8594C80.5547 16.9609 80.2305 17.0469 79.8008 17.1172C79.3789 17.1953 78.9805 17.2344 78.6055 17.2344C77.918 17.2344 77.2773 17.1211 76.6836 16.8945C76.0898 16.668 75.6094 16.2734 75.2422 15.7109C74.8828 15.1484 74.7031 14.3594 74.7031 13.3438V6.03125H72.7695V5.04688L74.7031 4.22656L75.5586 1.55469H76.7656V4.4375H80.6797V6.03125H76.7656V13.2969C76.7656 14.0547 76.9688 14.6211 77.375 14.9961C77.7812 15.3633 78.2969 15.5469 78.9219 15.5469Z" fill="black"/>
</svg>
